<mxfile host="app.diagrams.net" modified="2023-08-24T06:55:46.035Z" agent="Mozilla/5.0 (Windows NT 10.0; Win64; x64) AppleWebKit/537.36 (KHTML, like Gecko) Chrome/116.0.0.0 Safari/537.36" version="21.6.7" etag="CukblahEfEebA192mfyc" type="github">
  <diagram name="Page-1" id="ZAEzPE82K58AiT0_GOvJ">
    <mxGraphModel>
      <root>
        <mxCell id="0" />
        <mxCell id="1" parent="0" />
      </root>
    </mxGraphModel>
  </diagram>
</mxfile>
